<svg width="37" height="37" viewBox="0 0 37 37" fill="none" xmlns="http://www.w3.org/2000/svg">
<path d="M29.2054 17.131C28.5317 11.8246 23.9884 7.70834 18.5 7.70834C14.2512 7.70834 10.5605 10.1904 8.87542 14.1047C5.56392 15.096 3.08337 18.2225 3.08337 21.5833C3.08337 25.6795 6.30392 29.0065 10.3415 29.247V29.2917H27.7346V29.287L27.75 29.2917C31.151 29.2917 33.9167 26.5259 33.9167 23.125C33.9149 21.7429 33.4498 20.4014 32.5957 19.3148C31.7416 18.2282 30.5479 17.4593 29.2054 17.131ZM12.3334 18.5H16.9584V13.875H20.0417V18.5H24.6667L18.5 26.2083L12.3334 18.5Z" fill="#22222E"/>
</svg>
