<svg width="18" height="18" viewBox="0 0 18 18" fill="none" xmlns="http://www.w3.org/2000/svg">
<path d="M16.2983 1.70176C15.929 1.33262 15.4283 1.12524 14.9063 1.12524C14.3842 1.12524 13.8835 1.33262 13.5143 1.70176L12.6465 2.56951L15.4305 5.35351L16.2983 4.48576C16.6674 4.11656 16.8748 3.61585 16.8748 3.09376C16.8748 2.57167 16.6674 2.07096 16.2983 1.70176ZM14.6348 6.14926L11.8508 3.36526L5.55075 9.66526C5.08789 10.1279 4.74763 10.6986 4.56075 11.3258L3.96075 13.3395C3.93178 13.4367 3.92962 13.5399 3.9545 13.6382C3.97937 13.7365 4.03036 13.8262 4.10206 13.8979C4.17376 13.9697 4.26352 14.0206 4.36182 14.0455C4.46012 14.0704 4.56332 14.0682 4.6605 14.0393L6.67425 13.4393C7.30142 13.2524 7.87212 12.9121 8.33475 12.4493L14.6348 6.14926Z" fill="black"/>
<path d="M3.9375 3.9375C3.34076 3.9375 2.76847 4.17455 2.34651 4.59651C1.92455 5.01847 1.6875 5.59076 1.6875 6.1875V14.0625C1.6875 14.6592 1.92455 15.2315 2.34651 15.6535C2.76847 16.0754 3.34076 16.3125 3.9375 16.3125H11.8125C12.4092 16.3125 12.9815 16.0754 13.4035 15.6535C13.8254 15.2315 14.0625 14.6592 14.0625 14.0625V10.125C14.0625 9.97582 14.0032 9.83274 13.8977 9.72725C13.7923 9.62176 13.6492 9.5625 13.5 9.5625C13.3508 9.5625 13.2077 9.62176 13.1023 9.72725C12.9968 9.83274 12.9375 9.97582 12.9375 10.125V14.0625C12.9375 14.3609 12.819 14.647 12.608 14.858C12.397 15.069 12.1109 15.1875 11.8125 15.1875H3.9375C3.63913 15.1875 3.35298 15.069 3.142 14.858C2.93103 14.647 2.8125 14.3609 2.8125 14.0625V6.1875C2.8125 5.88913 2.93103 5.60298 3.142 5.392C3.35298 5.18103 3.63913 5.0625 3.9375 5.0625H7.875C8.02418 5.0625 8.16726 5.00324 8.27275 4.89775C8.37824 4.79226 8.4375 4.64918 8.4375 4.5C8.4375 4.35082 8.37824 4.20774 8.27275 4.10225C8.16726 3.99676 8.02418 3.9375 7.875 3.9375H3.9375Z" fill="black"/>
</svg>
